<svg viewBox="0 0 100 100">
	<path d="M50,0C22.4,0,0,22.4,0,50c0,27.6,22.4,50,50,50c27.6,0,50-22.4,50-50C100,22.4,77.6,0,50,0z M72.9,72.1
		c-0.9,1.5-2.8,1.9-4.3,1c-11.7-7.2-26.5-8.8-43.9-4.8C23,68.7,21.4,67.7,21,66c-0.4-1.7,0.7-3.3,2.3-3.7
		c19-4.4,35.4-2.5,48.6,5.6C73.4,68.7,73.8,70.6,72.9,72.1z M79,58.5c-1.1,1.8-3.5,2.4-5.4,1.3C60.2,51.5,39.8,49.1,23.9,54
		c-2.1,0.6-4.2-0.5-4.9-2.6c-0.6-2.1,0.5-4.2,2.6-4.9c18.2-5.5,40.7-2.8,56.2,6.6C79.6,54.3,80.2,56.7,79,58.5z M79.6,44.3
		c-16.1-9.6-42.7-10.5-58.1-5.8c-2.5,0.7-5.1-0.6-5.8-3.1c-0.7-2.5,0.6-5.1,3.1-5.8c17.7-5.4,47-4.3,65.6,6.7
		c2.2,1.3,3,4.2,1.6,6.4C84.7,44.9,81.8,45.6,79.6,44.3z" />
</svg>