<svg viewBox="0 0 24 24">
	<path fill-rule="evenodd" clip-rule="evenodd"
		d="M8.17086 21.2527C15.9596 21.2527 20.2197 14.531 20.2197 8.70189C20.2197 8.51097 20.2197 8.32091 20.2073 8.13171C21.036 7.50727 21.7514 6.73411 22.32 5.84841C21.5471 6.20514 20.7273 6.43908 19.8878 6.54243C20.7718 5.99115 21.4334 5.12409 21.7495 4.10261C20.9183 4.61642 20.0088 4.97853 19.0605 5.17331C17.7479 3.71939 15.6621 3.36354 13.9728 4.30529C12.2835 5.24705 11.4107 7.25221 11.844 9.19639C8.43909 9.01858 5.26679 7.34336 3.11654 4.58765C1.99258 6.60319 2.56668 9.18165 4.42759 10.4761C3.75368 10.4553 3.09448 10.2659 2.50559 9.92395V9.97985C2.50614 12.0796 3.92707 13.8882 5.90294 14.3039C5.2795 14.481 4.62539 14.5069 3.99085 14.3796C4.54561 16.1765 6.13541 17.4075 7.94712 17.4429C6.44761 18.6705 4.59523 19.3369 2.68805 19.3349C2.35105 19.3342 2.0144 19.313 1.67999 19.2713C3.61655 20.5658 5.86984 21.2525 8.17086 21.2493" />
</svg>