<svg width="106" height="32" fill="none" xmlns="http://www.w3.org/2000/svg">
	<path
		d="M8.92 11.355V8.258H3.851l-.913 5.161h2.94c-.203.516-.304 1.033-.406 1.549L3.75 24.98a5.715 5.715 0 000 1.858H.912L0 32h12.872l.913-5.161h-2.737c-1.216 0-2.23-1.136-2.027-2.374l1.419-8.568a2.859 2.859 0 012.838-2.478h5.777l-2.128 12.284c-.102.826-.102 1.755.101 2.58.71 2.272 2.737 3.717 4.966 3.717h35.78l8.514-18.58h4.764l-2.129 12.283c-.101.826-.101 1.755.101 2.58.913 2.272 2.94 3.717 5.17 3.717H104.5l.912-5.161h-2.534c-1.217 0-2.23-1.136-2.027-2.374L105.006 0H94.871l-.913 5.161h5.068l-3.446 19.82a5.701 5.701 0 000 1.858H76.12c-1.217 0-2.23-1.136-2.028-2.374l.304-1.755h16.42l1.52-8.671c.102-.826.102-1.755-.202-2.58-.71-1.962-2.534-3.098-4.46-3.098H62.943l-8.514 18.581h-1.52l-2.332-13.42h5.17l.912-5.16H44.597l3.244 18.58H24.63c-1.216 0-2.23-1.136-2.027-2.374l.304-1.755h16.42l1.52-8.671c.101-.826.101-1.755-.203-2.58-.71-1.962-2.534-3.097-4.46-3.097H16.624c-1.115 0-2.129.103-3.142.516-1.115.31-2.23 1.238-3.041 2.374H8.92zm66.591 3.82c.203-1.033 1.014-1.756 2.028-1.756h7.5c1.216 0 2.23 1.136 2.027 2.375l-.304 1.754H75.106l.405-2.374zm-51.388 0c.203-1.033 1.014-1.756 2.027-1.756H33.651c1.216 0 2.23 1.136 2.027 2.375l-.406 1.754H23.718l.405-2.374z"
		fill="#01B9F2" />
</svg>